<?xml version="1.0" encoding="UTF-8"?>
<svg id="Layer_1" data-name="Layer 1" xmlns="http://www.w3.org/2000/svg" xmlns:xlink="http://www.w3.org/1999/xlink" viewBox="0 0 414.75 290.04">
  <defs>
    <style>
      .cls-1 {
        fill: none;
      }

      .cls-2 {
        fill-rule: evenodd;
      }

      .cls-2, .cls-3 {
        fill: #fcf8f5;
      }

      .cls-4 {
        fill: #330601;
      }

      .cls-5 {
        clip-path: url(#clippath-1);
      }

      .cls-6 {
        clip-path: url(#clippath-3);
      }

      .cls-7 {
        clip-path: url(#clippath-4);
      }

      .cls-8 {
        clip-path: url(#clippath-2);
      }

      .cls-9 {
        clip-path: url(#clippath-7);
      }

      .cls-10 {
        clip-path: url(#clippath-6);
      }

      .cls-11 {
        clip-path: url(#clippath-9);
      }

      .cls-12 {
        clip-path: url(#clippath-8);
      }

      .cls-13 {
        clip-path: url(#clippath-5);
      }

      .cls-14 {
        clip-path: url(#clippath);
      }
    </style>
    <clipPath id="clippath">
      <rect class="cls-1" x="245.84" y="119.91" width="109.65" height="168.52"/>
    </clipPath>
    <clipPath id="clippath-1">
      <rect class="cls-1" x="309.04" y="158.26" width="46.06" height="97.22"/>
    </clipPath>
    <clipPath id="clippath-2">
      <rect class="cls-1" x="47.62" width="172.84" height="167.98"/>
    </clipPath>
    <clipPath id="clippath-3">
      <rect class="cls-1" x="74.62" y="53.47" width="276.54" height="159.33"/>
    </clipPath>
    <clipPath id="clippath-4">
      <rect class="cls-1" x="94.18" y="61.55" width="13.05" height="71.58"/>
    </clipPath>
    <clipPath id="clippath-5">
      <rect class="cls-1" x="94.07" y="61.04" width="13.5" height="72.38"/>
    </clipPath>
    <clipPath id="clippath-6">
      <rect class="cls-1" x="94.18" y="61.55" width="13.05" height="71.58"/>
    </clipPath>
    <clipPath id="clippath-7">
      <rect class="cls-1" x="278.15" y="159.34" width="13.96" height="73.54"/>
    </clipPath>
    <clipPath id="clippath-8">
      <rect class="cls-1" x="277.71" y="159.34" width="14.58" height="74"/>
    </clipPath>
    <clipPath id="clippath-9">
      <rect class="cls-1" x="278.15" y="159.34" width="13.96" height="73.54"/>
    </clipPath>
  </defs>
  <path class="cls-3" d="M207.29,63.86c52.49-16.18,100.41-24.13,136.93-24.13,19.16,0,35.17,2.2,47.07,6.52,11.96,4.36,19.76,10.88,22.43,19.52.67,2.2,1.02,4.51,1.02,6.96,0,20.1-23.22,45.44-60.79,70.15-37.49,24.68-89.29,48.75-146.51,66.39-52.48,16.18-100.41,24.13-136.93,24.13-19.14,0-35.17-2.2-47.07-6.52-11.95-4.36-19.76-10.87-22.43-19.53-.67-2.19-1.02-4.5-1.02-6.96,0-20.1,23.23-45.44,60.79-70.15,37.49-24.68,89.29-48.76,146.5-66.39ZM344.22,40.3c-36.46,0-84.34,7.94-136.78,24.11-57.15,17.62-108.89,41.68-146.35,66.31C23.7,155.33.57,180.5.57,200.4c0,2.39.34,4.66.99,6.79,2.62,8.47,10.3,14.87,22.07,19.17,11.83,4.3,27.79,6.47,46.88,6.47,36.47,0,84.34-7.94,136.78-24.09,57.15-17.62,108.9-41.68,146.36-66.32,37.39-24.6,60.52-49.78,60.52-69.68,0-2.39-.33-4.65-.99-6.8-2.61-8.46-10.3-14.86-22.07-19.16-11.83-4.3-27.79-6.49-46.88-6.49"/>
  <path class="cls-2" d="M339.94,8.92h.24c0,29.26,2.44,31.36,16.13,31.22v.49c-13.68.13-16.13,2.28-16.13,31.54h-.12s-.12.01-.12.01c0-29.26-2.44-31.37-16.12-31.23v-.49c13.68-.14,16.12-2.28,16.12-31.54"/>
  <path class="cls-2" d="M109.42,169.02h.19s.19-.01.19-.01c0,43.85,3.64,47.01,24.16,46.8v.74c-20.52.19-24.16,3.41-24.16,47.26h-.38c0-43.84-3.66-46.99-24.16-46.79v-.74c20.5-.2,24.16-3.42,24.16-47.26"/>
  <path class="cls-2" d="M144.62,233.42h.22c0,26.19,2.18,28.07,14.43,27.95v.43c-12.25.12-14.43,2.05-14.43,28.24h-.22c0-26.19-2.18-28.07-14.43-27.95v-.45c12.25-.11,14.43-2.04,14.43-28.23"/>
  <path class="cls-3" d="M207.29,66.78c50.38-15.54,96.39-23.16,131.44-23.16,18.39,0,33.76,2.09,45.19,6.25,11.48,4.18,18.97,10.44,21.53,18.74.64,2.09.98,4.32.98,6.69,0,19.29-22.3,43.62-58.35,67.34-35.99,23.68-85.72,46.79-140.63,63.72-50.38,15.53-96.39,23.16-131.45,23.16-18.37,0-33.75-2.09-45.18-6.25-11.48-4.18-18.97-10.44-21.53-18.74-.65-2.11-.98-4.32-.98-6.69,0-19.29,22.3-43.62,58.35-67.34,36-23.68,85.72-46.79,140.63-63.72ZM338.73,44.17c-34.99,0-80.95,7.62-131.28,23.13-54.86,16.9-104.54,39.99-140.49,63.65-35.89,23.62-58.1,47.78-58.1,66.88,0,2.3.32,4.48.96,6.52,2.51,8.13,9.88,14.28,21.18,18.4,11.37,4.13,26.68,6.22,45,6.22,35.01,0,80.96-7.62,131.29-23.13,54.87-16.9,104.54-39.99,140.49-63.65,35.9-23.62,58.11-47.78,58.11-66.88,0-2.3-.32-4.48-.96-6.53-2.51-8.12-9.88-14.26-21.19-18.39-11.37-4.13-26.68-6.22-45.01-6.22"/>
  <g class="cls-14">
    <g>
      <path d="M248.61,254.3v-95.89h31.26v14.55h-16.14v-.96h.96v27.56h-.96v-.96h14.35v14.04h-14.35v-.96h.96v29.98h-.96v-.96h16.65v14.55h-31.77v-.96h0ZM250.52,254.3h-.96v-.96h29.86v.96h-.96v-12.63h.96v.96h-16.65v-31.9h14.36v.96h-.96v-12.12h.96v.96h-14.36v-29.47h16.14v.96h-.96v-12.63h.96v.96h-29.34v-.96h.96v94.93h0Z"/>
      <path d="M277.06,254.3v-95.89h19.46c6.21,0,10.92,1.54,14.12,4.6,3.22,3.08,4.82,7.48,4.82,13.19v20.8c0,3.49-.72,6.5-2.17,9.03-1.49,2.6-3.93,4.41-7.32,5.42l-.27-.92h.96v.13h-.96l.23-.93c3.44.84,5.8,2.6,7.08,5.31,1.21,2.55,1.85,5.85,1.94,9.89l.26,17.49c.09,2.52.23,4.76.44,6.74.21,1.96.48,3.59.81,4.91l.3,1.19h-16.03l-.16-.76c-.26-1.23-.5-3.03-.72-5.41-.21-2.36-.36-5.12-.45-8.29l-.26-18c-.04-1.62-.41-2.82-1.12-3.57-.68-.73-1.73-1.1-3.16-1.1h-2.68v-.96h.96v38.09h-16.07v-.96h0ZM278.98,254.3h-.96v-.96h14.16v.96h-.96v-38.09h3.64c1.98,0,3.5.57,4.56,1.71,1.04,1.11,1.58,2.73,1.63,4.85l.26,17.98c.09,3.13.23,5.85.44,8.17.21,2.3.44,4.03.68,5.18l-.94.2v-.96h14.04v.96l-.93.23c-.35-1.4-.64-3.13-.85-5.17-.21-2.02-.36-4.33-.45-6.91l-.26-17.48c-.08-3.78-.67-6.81-1.76-9.12-1.02-2.15-2.95-3.57-5.8-4.27l-.73-.18v-1.6l.68-.2c2.9-.86,4.97-2.37,6.2-4.53,1.28-2.24,1.92-4.93,1.92-8.07v-20.8c0-5.17-1.41-9.11-4.23-11.81-2.83-2.71-7.1-4.08-12.8-4.08h-18.5v-.96h.96v94.95h0ZM292.18,204.98h3.32c1.18,0,2.15-.37,2.9-1.12.75-.75,1.12-2.22,1.12-4.43v-21.94c0-1.78-.32-3.08-.98-3.91-.6-.75-1.53-1.13-2.79-1.13h-3.57v-.96h.96v34.45h-.96v-.96h0ZM291.23,206.9v-36.37h4.53c1.88,0,3.31.62,4.29,1.86.92,1.17,1.39,2.87,1.39,5.09v21.94c0,2.73-.56,4.66-1.69,5.78s-2.54,1.69-4.25,1.69h-4.27Z"/>
      <g class="cls-5">
        <path d="M309.73,254.18l11.58-95.77h21.85l11.84,96.84h-16.36l-1.75-16.68.95-.1v.96h-11.23v-.96l.95.1-1.75,16.68h-16.23l.13-1.07ZM311.63,254.41l-.95-.11v-.96h14.29v.96l-.95-.1,1.75-16.68h12.95l1.75,16.68-.95.1v-.96h14.42v.96l-.95.12-11.61-94.93.95-.12v.96h-20.16v-.96l.95.11-11.49,94.93ZM327.91,225.52h8.8v.96l-.95.1-3.57-35.11-.77-11.63.95-.06v.96h-.26v-.96l.96.05-.64,11.63-3.57,35.11-.95-.1v-.95ZM326.85,227.44l3.68-36.14.95.1-.96-.05.69-12.52h2.06l.83,12.51-.96.06.95-.1,3.68,36.14h-10.93Z"/>
      </g>
      <path class="cls-3" d="M249.57,254.3v-94.93h29.34v12.63h-15.18v27.55h13.4v12.13h-13.4v29.98h15.7v12.63h-29.86Z"/>
      <path class="cls-3" d="M278.02,254.3v-94.93h18.5c5.95,0,10.44,1.45,13.46,4.34,3.02,2.89,4.53,7.06,4.53,12.51v20.79c0,3.32-.68,6.17-2.04,8.55-1.36,2.38-3.62,4.04-6.76,4.98v.13c3.14.77,5.29,2.36,6.44,4.78,1.15,2.42,1.76,5.59,1.85,9.5l.26,17.48c.09,2.56.23,4.83.44,6.83.21,2,.49,3.68.83,5.04h-14.04c-.26-1.19-.49-2.96-.71-5.29-.21-2.34-.36-5.08-.44-8.24l-.26-17.99c-.09-3.74-1.83-5.61-5.23-5.61h-2.68v37.13h-14.16ZM292.18,205.94h3.32c1.45,0,2.64-.47,3.57-1.4.94-.93,1.41-2.64,1.41-5.1v-21.94c0-4-1.58-6-4.73-6h-3.57v34.45Z"/>
      <path class="cls-3" d="M310.68,254.3l11.48-94.93h20.16l11.61,94.93h-14.41l-1.65-15.82h-11.23l-1.65,15.82h-14.3ZM327.9,226.48h8.81l-3.58-35.08-.76-11.61h-.26l-.63,11.61-3.58,35.08Z"/>
    </g>
  </g>
  <g class="cls-8">
    <g>
      <path d="M50.23,38.23h16.07v96.84h-16.07V38.23ZM52.15,40.14v93.01h12.25V40.14h-12.25Z"/>
      <path d="M67.84,134.11V38.23h16.28l9.1,43.27,2.17,13.93-.95.15v-.96h.26v.96l-.96.05-.9-16.61v-40.79h15.69v96.84h-16.28l-9.1-43.02-2.17-13.93.94-.15v.96h-.26v-.96l.96-.05.9,16.49v40.66h-15.69v-.95h0ZM69.75,134.11h-.96v-.96h13.78v.96h-.96v-39.68h.96l-.95.05-.95-17.47h2.09l2.3,14.72-.94.15.94-.19,8.92,42.23-.94.2v-.96h14.55v.96h-.96V39.19h.96v.96h-13.78v-.96h.96v39.81h-.96l.96-.05.95,17.6h-2.09l-2.3-14.72.94-.15-.94.19-8.93-42.49.94-.19v.96h-14.55v-.96h.96v94.93h0Z"/>
      <path d="M126.27,134.11V38.23h19.4l6.75,48.71.51,9.86-.96.05v-.96h.26v.96l-.96-.06.64-9.86,6.75-48.7h19.4v96.84h-15.69v-39.77l1.28-28.98.96.04v.96h-.26v-.96l.95.12-1.15,9.19-6.37,44.99h-11.23l-6.5-44.98-1.02-9.2.95-.11v.96h-.26v-.96l.96-.04,1.28,28.98v39.77h-15.69v-.96h0ZM128.18,134.11h-.96v-.96h13.78v.96h-.96v-38.79h.96l-.96.04-1.32-29.96h2.11l1.11,10.04-.95.11.95-.14,6.38,44.15-.95.14v-.96h9.57v.96l-.95-.13,6.25-44.13,1.25-10.03h2.1l-1.32,29.96-.96-.04h.96v38.79h-.96v-.96h13.78v.96h-.96V39.19h.96v.96h-17.61v-.96l.95.13-6.64,47.85-.95-.13.96.06-.7,10.72h-2.06l-.56-10.73.96-.05-.95.13-6.64-47.85.95-.13v.96h-17.61v-.96h.96v94.92h0Z"/>
      <path d="M189.94,134.11v-26.16h.96l-.94.18-13.36-69.91h16.55l5.34,45.03.26,5.14-.96.05v-.96h.26v.96l-.95-.07.38-5.12,5.2-45.01h16.55l-13.23,69.91-.94-.18h.96v27.11h-16.08v-.96h0ZM191.85,134.11h-.96v-.96h14.16v.96h-.96v-26.25l13.03-68.86.94.18v.96h-14.55v-.96l.95.11-5.1,44.15-.95-.11.95.07-.45,5.99h-2.05l-.3-6.01.96-.04-.95.11-5.23-44.15.95-.11v.96h-14.55v-.96l.94-.18,13.16,68.86v26.24Z"/>
      <path class="cls-3" d="M51.19,134.11V39.19h14.16v94.93h-14.16Z"/>
      <path class="cls-3" d="M68.79,134.11V39.19h14.55l8.93,42.49,2.17,13.9h.25l-.9-16.58v-39.81h13.78v94.93h-14.55l-8.93-42.23-2.17-13.91h-.25l.9,16.45v39.68h-13.79Z"/>
      <path class="cls-3" d="M127.23,134.11V39.19h17.61l6.64,47.84.51,9.83h.25l.64-9.83,6.64-47.84h17.61v94.93h-13.78v-38.79l1.28-28.96h-.26l-1.15,9.19-6.25,44.15h-9.57l-6.38-44.15-1.02-9.19h-.25l1.28,28.96v38.79h-13.79Z"/>
      <path class="cls-3" d="M190.9,134.11v-26.15l-13.15-68.77h14.55l5.23,44.15.25,5.1h.25l.39-5.1,5.1-44.15h14.55l-13.01,68.77v26.15h-14.16Z"/>
    </g>
  </g>
  <g class="cls-6">
    <g>
      <path class="cls-4" d="M223.29,86.05c0,1.54-.62,2.81-1.85,3.81-1.15.93-2.54,1.4-4.15,1.4-2.82,0-6.06-.41-9.72-1.22l-9.58-2.11c-2.4-.53-4.95-1.15-7.65-1.86-2.64-.69-5.48-1.26-8.52-1.69l.17-1.23.45,1.15c-6.36,2.44-12.89,5.71-19.56,9.82-6.69,4.11-13.18,8.88-19.48,14.3-4.46,3.84-8.68,7.94-12.66,12.26-3.98,4.33-7.47,8.6-10.48,12.84-2.99,4.21-5.33,8.21-7.02,12.02-1.65,3.72-2.47,6.95-2.47,9.68s.9,4.91,2.71,6.56c1.83,1.67,4.78,2.47,8.86,2.39,4.26-.17,8.78-1.14,13.55-2.9,4.8-1.77,9.2-3.96,13.17-6.55,3.06-2.01,5.97-4.05,8.73-6.1,2.75-2.05,5.4-4.17,7.93-6.36l.03-.03,1.36-1.02c.43-.32.84-.51,1.24-.58.62-.11,1.14.06,1.58.49.38.38.6.8.65,1.28.06.49-.06.96-.36,1.41-.34.5-.77.97-1.31,1.4-2.55,2.11-5.35,4.38-8.4,6.81-3.08,2.46-6.19,4.63-9.33,6.51l-.64-1.06.66,1.05c-4.38,2.77-8.99,5.12-13.83,7.05-4.89,1.95-9.97,3.01-15.22,3.2-4.55.09-8.58-.82-12.08-2.73-3.62-1.98-5.96-5.04-7.02-9.18l1.2-.31.49,1.14c-.73.31-1.52.52-2.39.62-.8.09-1.57.14-2.33.14-7.15,0-12.74-2.2-16.78-6.62-4.01-4.38-6.01-10.61-6.01-18.69,0-5.72,1.15-11.35,3.47-16.88,2.3-5.5,5.43-10.56,9.39-15.2,3.95-4.62,8.31-8.55,13.07-11.79,7.26-4.84,15.03-8.38,23.31-10.62,8.26-2.23,17.16-3.35,26.7-3.35,4.91,0,9.63.31,14.19.94,4.54.62,8.99,1.47,13.35,2.54l-.3,1.2-.36-1.19c4.12-1.25,8.3-2.17,12.56-2.75,4.25-.58,8.31-.83,12.16-.74,5.13.18,9.43,1.15,12.89,2.91,3.76,1.92,5.64,4.54,5.64,7.87ZM220.81,86.05c0-2.31-1.43-4.19-4.28-5.64-3.14-1.59-7.09-2.48-11.83-2.65-3.73-.09-7.65.15-11.77.72-4.12.56-8.18,1.45-12.17,2.67l-.33.1-.33-.08c-4.28-1.05-8.64-1.88-13.1-2.49-4.44-.61-9.05-.92-13.85-.92-9.33,0-18.01,1.09-26.06,3.26-8.02,2.17-15.55,5.59-22.57,10.27-4.58,3.11-8.77,6.89-12.58,11.35-3.79,4.44-6.79,9.29-8.99,14.55-2.18,5.23-3.28,10.53-3.28,15.92,0,7.44,1.79,13.11,5.36,17.01,3.54,3.88,8.53,5.81,14.95,5.81.66,0,1.34-.04,2.04-.13.63-.07,1.2-.22,1.71-.44l1.33-.57.36,1.4c.88,3.44,2.82,5.98,5.8,7.62,3.12,1.7,6.71,2.51,10.8,2.43,4.97-.17,9.77-1.18,14.39-3.02,4.69-1.87,9.16-4.14,13.41-6.84h.01s.01-.02.01-.02c3.04-1.82,6.06-3.93,9.05-6.32,3.03-2.42,5.83-4.69,8.39-6.81.34-.27.61-.55.8-.84-.04.06-.04.14-.03.25.01.1.03.16.06.19.17.17.36.23.58.19h.03s-.11.06-.18.11l-1.32.99-.74-.99.81.94c-2.58,2.22-5.27,4.38-8.07,6.47-2.8,2.09-5.75,4.15-8.86,6.19-4.13,2.7-8.69,4.96-13.67,6.8-5.02,1.85-9.8,2.87-14.36,3.05-4.74.09-8.26-.92-10.58-3.03-2.34-2.14-3.51-4.94-3.51-8.39,0-3.08.9-6.64,2.69-10.68,1.75-3.96,4.17-8.11,7.26-12.45,3.07-4.32,6.63-8.68,10.67-13.08,4.04-4.4,8.33-8.55,12.87-12.46,6.4-5.51,13-10.35,19.79-14.53,6.81-4.18,13.47-7.52,19.98-10.02l.3-.11.32.04c3.13.45,6.06,1.03,8.8,1.75,2.67.7,5.19,1.31,7.55,1.84l9.59,2.11c3.48.77,6.55,1.16,9.19,1.16,1.03,0,1.9-.28,2.59-.85.64-.49.94-1.11.94-1.86ZM219.35,86.05c0-2.01-1.31-3.57-3.94-4.68-2.97-1.26-6.54-1.88-10.69-1.88-2.68,0-5.64.21-8.89.65-3.22.43-6.42,1.2-9.6,2.32l-.41-1.17.29-1.2c2.22.53,4.49,1.13,6.8,1.8l6.21,1.79-.34,1.19.3-1.2c2.83.7,5.91,1.5,9.27,2.39,3.24.85,6.14,1.28,8.68,1.28.93,0,1.58-.13,1.96-.4.24-.17.36-.47.36-.87ZM221.83,86.05c0,1.26-.47,2.23-1.42,2.9-.81.57-1.94.85-3.39.85-2.75,0-5.85-.45-9.31-1.36-3.35-.88-6.42-1.67-9.24-2.37h-.02s-6.24-1.8-6.24-1.8c-2.27-.66-4.5-1.25-6.69-1.77l-4.09-.98,3.97-1.39c3.34-1.17,6.71-1.99,10.1-2.44,3.36-.45,6.44-.67,9.22-.67,4.49,0,8.37.69,11.66,2.08,3.63,1.53,5.44,3.85,5.44,6.96ZM174.96,83.45c-6.56-.79-13.83-1.18-21.8-1.18-8.64,0-16.72.85-24.26,2.55-7.48,1.69-14.82,4.83-22.02,9.42-4.93,3.12-9.27,6.79-13.03,11.02-3.75,4.23-6.68,8.7-8.79,13.43-2.09,4.69-3.13,9.41-3.13,14.17,0,7.26,1.65,12.63,4.95,16.14,3.28,3.48,7.7,5.23,13.25,5.23.57,0,1.17-.04,1.83-.12.64-.08,1.24-.2,1.8-.36l.34,1.19-1.24.08c-.28-4.14.36-8.42,1.92-12.85,1.53-4.37,3.67-8.7,6.4-13.02,2.72-4.29,5.83-8.38,9.31-12.26,3.48-3.88,7-7.33,10.56-10.37,6.58-5.6,13.65-10.56,21.21-14.87,7.55-4.31,15.02-7.84,22.4-10.6l.43,1.16-.15,1.24ZM175.26,80.98l.28,2.39c-7.26,2.71-14.6,6.19-22.03,10.43-7.43,4.24-14.37,9.11-20.84,14.61-3.48,2.96-6.92,6.34-10.33,10.13-3.39,3.78-6.41,7.76-9.07,11.93-2.64,4.15-4.69,8.32-6.16,12.51-1.44,4.12-2.04,8.07-1.78,11.87l.06,1-.96.28c-.68.19-1.4.34-2.17.43-.75.09-1.47.14-2.14.14-6.26,0-11.28-2-15.05-6.01-3.75-3.99-5.63-9.93-5.63-17.84,0-5.11,1.11-10.17,3.35-15.18,2.21-4.97,5.28-9.65,9.2-14.07,3.91-4.41,8.43-8.23,13.55-11.46,7.44-4.75,15.04-8,22.81-9.75,7.72-1.74,15.98-2.61,24.8-2.61,8.08,0,15.45.39,22.11,1.19Z"/>
      <path class="cls-4" d="M199.7,119.06c1.95,0,3.46.41,4.52,1.21,1.16.89,1.75,2.18,1.75,3.86,0,2.16-1.03,4.99-3.08,8.49-1.99,3.4-5.1,7.21-9.31,11.42-5.34,5.43-10.39,9.74-15.13,12.91-4.88,3.27-8.77,4.91-11.67,4.91-2.26,0-3.99-.65-5.18-1.96-1.17-1.27-1.75-3.11-1.75-5.5,0-2.58.95-5.67,2.86-9.24,1.86-3.5,4.46-6.96,7.81-10.4,3.15-3.15,6.48-5.89,9.99-8.23,3.51-2.34,6.94-4.17,10.29-5.48,3.4-1.34,6.37-2.01,8.91-2.01ZM199.7,121.54c-2.22,0-4.89.61-8.01,1.84-3.18,1.24-6.45,2.99-9.81,5.23-3.37,2.25-6.57,4.88-9.58,7.9-3.18,3.27-5.65,6.54-7.4,9.84-1.71,3.21-2.56,5.9-2.56,8.08,0,1.75.36,3.03,1.1,3.82.7.77,1.82,1.15,3.35,1.15,2.39,0,5.83-1.49,10.29-4.48,4.6-3.08,9.52-7.28,14.76-12.61,4.07-4.07,7.04-7.71,8.93-10.93,1.83-3.11,2.74-5.53,2.74-7.24,0-.87-.26-1.5-.77-1.89-.62-.47-1.63-.7-3.02-.7ZM201.37,123.6c0-.1,0-.17-.02-.21,0,0,.02.02.03.04h-.02c-.08-.03-.19-.04-.33-.04-1.75,0-4.76,1.61-9.04,4.84-4.45,3.36-9.38,7.79-14.81,13.3l-.88-.87.91.84c-2.98,3.24-5.63,6.31-7.94,9.19-2.16,2.68-3.23,4.72-3.23,6.1,0,.42.06.7.19.83.11.11.34.17.68.17,1.73,0,4.69-1.71,8.87-5.14,4.37-3.59,9.23-8.13,14.57-13.66,1.48-1.56,3.09-3.37,4.84-5.43,1.73-2.03,3.22-4.01,4.46-5.95,1.14-1.77,1.72-3.11,1.72-4.01ZM203.85,123.6c0,1.39-.7,3.18-2.11,5.36-1.31,2.03-2.86,4.1-4.66,6.21-1.78,2.09-3.43,3.94-4.95,5.55-5.41,5.59-10.34,10.2-14.78,13.85-4.64,3.8-8.12,5.7-10.44,5.7-1.06,0-1.89-.32-2.49-.95-.58-.61-.87-1.46-.87-2.54,0-1.96,1.26-4.52,3.78-7.65,2.35-2.93,5.04-6.04,8.05-9.32l.02-.02.02-.02c5.51-5.59,10.54-10.11,15.08-13.54,4.72-3.56,8.23-5.34,10.53-5.34.85,0,1.53.23,2.03.69.53.49.8,1.16.8,2.01Z"/>
      <path class="cls-4" d="M267.93,88.38c.52,0,.92.14,1.21.43.21.21.33.46.36.76.03.28-.03.55-.17.79-.11.19-.28.35-.48.47-.13.08-.31.16-.53.23l-.04.02h-.04c-1.64.42-3.41,1.23-5.33,2.43-1.99,1.26-3.55,2.32-4.67,3.18-6.67,5.09-13.32,10.71-19.95,16.85-6.64,6.16-13.66,13.02-21.04,20.58-2.81,2.98-5.55,5.95-8.24,8.9-2.66,2.92-4.86,5.55-6.6,7.9-1.12,1.46-1.99,2.76-2.62,3.9-.56,1-.83,1.75-.83,2.24,0,.03,0,.05,0,.06,0,0,0,0,0-.01-.02-.04-.05-.09-.09-.12h0c.08,0,.18.02.31.02,1.93,0,5.17-1.68,9.71-5.04l.02-.02.02-.02c1.29-.85,2.82-2.02,4.59-3.49,1.8-1.49,3.59-2.99,5.34-4.49,1.77-1.5,3.18-2.69,4.24-3.58l.05-.04.06-.04c.22-.15.49-.36.8-.63.43-.38.9-.55,1.42-.52.49.03.93.24,1.33.64l.05.05.04.05c.81,1.02.56,2.19-.75,3.5l-.04.04c-.98.89-2.39,2.09-4.21,3.61l-5.62,4.63c-1.97,1.61-3.8,3-5.51,4.16l-.7-1.02.73,1c-2.35,1.71-4.65,3.14-6.92,4.27-2.38,1.19-4.42,1.79-6.11,1.79-1.84,0-3.26-.49-4.25-1.49s-1.49-2.41-1.49-4.25c0-2.18,1.03-4.91,3.1-8.2,1.44-2.34,3.63-5.25,6.58-8.73,2.93-3.46,6.47-7.32,10.64-11.57,4.78-4.87,9.55-9.51,14.32-13.93,4.78-4.42,9.27-8.38,13.47-11.88,4.22-3.51,7.84-6.29,10.87-8.34h.02s.02-.02.02-.02c3-1.91,5.78-3.27,8.35-4.1,1.13-.38,2.41-.66,3.86-.84,1.44-.19,3.03-.23,4.79-.14l-.06,1.24v-1.25h0ZM267.93,90.86h-.06c-1.6-.09-3.05-.04-4.34.12-1.29.17-2.43.42-3.41.75-2.37.76-4.96,2.04-7.78,3.83l-.66-1.05.69,1.02c-2.96,2.01-6.52,4.74-10.68,8.19-4.17,3.47-8.63,7.4-13.37,11.79-4.74,4.4-9.49,9.01-14.24,13.84-4.12,4.21-7.63,8.02-10.52,11.44-2.87,3.39-4.99,6.21-6.38,8.45-1.81,2.88-2.72,5.18-2.72,6.87,0,1.15.25,1.99.76,2.5.51.51,1.34.76,2.5.76,1.3,0,2.97-.51,5-1.52,2.14-1.07,4.33-2.42,6.57-4.06h.02s.02-.02.02-.02c1.64-1.13,3.42-2.47,5.34-4.03l5.61-4.63c1.79-1.49,3.17-2.67,4.12-3.53l.83.92-.87-.88c.27-.26.42-.47.47-.6-.04.13-.01.26.1.4l.97-.78-.88.88s.13.07.27.08c.17.01.29-.02.36-.09-.39.34-.75.62-1.05.83l-.69-1.03.79.95c-1.05.88-2.46,2.07-4.22,3.56-1.77,1.5-3.56,3-5.37,4.5-1.84,1.53-3.44,2.74-4.8,3.65l-.69-1.03.74,1c-4.98,3.69-8.71,5.53-11.18,5.53-.78,0-1.41-.19-1.88-.58-.55-.45-.82-1.06-.82-1.85,0-.92.38-2.07,1.15-3.45.69-1.24,1.62-2.63,2.8-4.17,1.79-2.41,4.04-5.11,6.76-8.09,2.69-2.96,5.46-5.95,8.29-8.96,7.42-7.6,14.47-14.49,21.13-20.67,6.69-6.2,13.39-11.87,20.12-17,1.18-.9,2.8-2.01,4.85-3.31,2.14-1.35,4.16-2.26,6.05-2.73l.3,1.2-.39-1.17s.07-.02.09-.03c-.01,0-.03.01-.05.03-.15.09-.28.21-.37.38-.14.23-.19.48-.17.75.03.28.15.52.34.73.15.15.33.25.52.29h.04Z"/>
      <path class="cls-4" d="M290.02,88.38c.52,0,.92.14,1.21.43.21.21.33.46.36.76.03.28-.03.55-.17.79-.11.19-.28.35-.48.47-.13.08-.31.16-.53.23l-.04.02h-.04c-1.64.42-3.41,1.23-5.33,2.43-1.99,1.26-3.55,2.32-4.67,3.18-6.67,5.09-13.32,10.71-19.95,16.85-6.64,6.16-13.66,13.02-21.04,20.58-2.81,2.98-5.55,5.95-8.24,8.9-2.66,2.92-4.86,5.55-6.6,7.9-1.12,1.46-1.99,2.76-2.62,3.9-.56,1-.83,1.75-.83,2.24,0,.03,0,.05,0,.06,0,0,0,0,0-.01-.02-.04-.05-.09-.09-.12h0c.08,0,.18.02.31.02,1.93,0,5.17-1.68,9.71-5.04l.02-.02.02-.02c1.29-.85,2.82-2.02,4.59-3.49,1.8-1.49,3.59-2.99,5.34-4.49,1.77-1.5,3.18-2.69,4.24-3.58l.05-.04.06-.04c.22-.15.49-.36.8-.63.43-.38.9-.55,1.42-.52.49.03.93.24,1.33.64l.05.05.04.05c.81,1.02.56,2.19-.75,3.5l-.04.04c-.98.89-2.39,2.09-4.21,3.61l-5.62,4.63c-1.97,1.61-3.8,3-5.51,4.16l-.7-1.02.73,1c-2.35,1.71-4.65,3.14-6.92,4.27-2.38,1.19-4.42,1.79-6.11,1.79-1.84,0-3.26-.49-4.25-1.49-.99-.99-1.49-2.41-1.49-4.25,0-2.18,1.03-4.91,3.1-8.2,1.44-2.34,3.63-5.25,6.58-8.73,2.93-3.46,6.47-7.32,10.64-11.57,4.78-4.87,9.55-9.51,14.32-13.93,4.78-4.42,9.27-8.38,13.47-11.88,4.22-3.51,7.84-6.29,10.87-8.34h.02s.02-.02.02-.02c3-1.91,5.78-3.27,8.35-4.1,1.13-.38,2.41-.66,3.86-.84,1.44-.19,3.03-.23,4.79-.14l-.06,1.24v-1.25h0ZM290.02,90.86h-.06c-1.6-.09-3.05-.04-4.34.12-1.29.17-2.43.42-3.41.75-2.37.76-4.96,2.04-7.78,3.83l-.66-1.05.69,1.02c-2.96,2.01-6.52,4.74-10.68,8.19-4.17,3.47-8.63,7.4-13.37,11.79-4.74,4.4-9.49,9.01-14.24,13.84-4.12,4.21-7.63,8.02-10.52,11.44-2.87,3.39-4.99,6.21-6.38,8.45-1.81,2.88-2.72,5.18-2.72,6.87,0,1.15.25,1.99.76,2.5.51.51,1.34.76,2.5.76,1.3,0,2.97-.51,5-1.52,2.14-1.07,4.33-2.42,6.57-4.06h.02s.02-.02.02-.02c1.64-1.13,3.42-2.47,5.34-4.03l5.61-4.63c1.79-1.49,3.17-2.67,4.12-3.53l.83.92-.87-.88c.27-.26.42-.47.47-.6-.04.13-.01.26.1.4l.97-.78-.88.88s.13.07.27.08c.17.01.29-.02.36-.09-.39.34-.75.62-1.05.83l-.69-1.03.79.95c-1.05.88-2.46,2.07-4.22,3.56-1.77,1.5-3.56,3-5.37,4.5-1.84,1.53-3.44,2.74-4.8,3.65l-.69-1.03.74,1c-4.98,3.69-8.71,5.53-11.18,5.53-.78,0-1.41-.19-1.88-.58-.55-.45-.82-1.06-.82-1.85,0-.92.38-2.07,1.15-3.45.69-1.24,1.62-2.63,2.8-4.17,1.79-2.41,4.04-5.11,6.76-8.09,2.69-2.96,5.46-5.95,8.29-8.96,7.42-7.6,14.47-14.49,21.13-20.67,6.69-6.2,13.39-11.87,20.12-17,1.18-.9,2.8-2.01,4.85-3.31,2.14-1.35,4.16-2.26,6.05-2.73l.3,1.2-.39-1.17s.07-.02.09-.03c-.01,0-.03.01-.05.03-.15.09-.28.21-.37.38-.14.23-.19.48-.17.75.03.28.15.52.34.73.15.15.33.25.52.29h.04Z"/>
      <path class="cls-4" d="M257.4,138.01c-2.17,2-4.3,4.17-6.39,6.52-2.07,2.33-3.8,4.57-5.17,6.72-1.28,2-1.92,3.59-1.92,4.75,0,.5.11.85.34,1.05.27.24.76.36,1.47.36,1.17,0,2.69-.37,4.57-1.1,1.95-.77,3.99-1.83,6.13-3.2,3.13-2,6.2-4.24,9.2-6.72,3.03-2.5,5.38-4.5,7.04-5.98l.83.92-.87-.88c.51-.51,1.03-.93,1.56-1.24.42-.25.83-.38,1.23-.38.52,0,.96.19,1.34.56.35.35.54.75.58,1.22.03.43-.08.84-.33,1.24-.27.43-.57.81-.9,1.14l-.02.02-.02.02c-2.22,2.05-4.62,4.11-7.2,6.2-2.58,2.09-5.34,4.16-8.27,6.2-2.26,1.54-4.79,2.98-7.58,4.33-2.9,1.41-5.73,2.11-8.47,2.11-1.8,0-3.52-.45-5.16-1.34-1.88-1.03-2.83-3.07-2.83-6.11,0-1.93.69-4.55,2.08-7.88,1.39-3.33,4.26-7.09,8.62-11.26,3.05-2.87,6.37-5.51,9.95-7.93,3.59-2.42,7.06-4.39,10.43-5.92,3.47-1.57,6.35-2.36,8.64-2.36,1.65,0,2.92.42,3.82,1.26.92.86,1.39,1.96,1.39,3.29,0,1.72-.81,3.51-2.42,5.37-1.48,1.71-3.2,3.22-5.14,4.52-2.19,1.46-4.65,2.71-7.38,3.76-2.79,1.07-5.27,1.6-7.45,1.6-1.17,0-2.19-.22-3.07-.66l.55-1.11.84.9ZM255.72,136.18l.63-.58.77.38c.53.27,1.18.4,1.96.4,1.87,0,4.06-.48,6.56-1.44,2.56-.98,4.86-2.15,6.9-3.51,1.76-1.17,3.31-2.53,4.64-4.08,1.21-1.4,1.81-2.65,1.81-3.75,0-.61-.2-1.1-.6-1.47-.43-.39-1.13-.59-2.13-.59-1.94,0-4.48.71-7.62,2.14-3.24,1.47-6.6,3.37-10.07,5.72-3.47,2.34-6.68,4.9-9.62,7.67-4.11,3.93-6.79,7.41-8.05,10.42-1.26,3.02-1.89,5.33-1.89,6.93,0,2.07.51,3.38,1.54,3.94,1.27.69,2.59,1.04,3.97,1.04,2.37,0,4.83-.62,7.39-1.86,2.68-1.3,5.09-2.67,7.23-4.13,2.88-2.01,5.59-4.04,8.13-6.09,2.54-2.05,4.9-4.09,7.08-6.1l.84.92-.87-.88c.19-.19.38-.43.55-.7-.03.05-.04.13-.04.25.01.15.06.27.15.36.11.11.25.17.41.17.04,0,.08,0,.11-.02-.02,0-.04.02-.07.04-.35.21-.71.5-1.08.87l-.02.02-.02.02c-1.69,1.51-4.06,3.52-7.11,6.05-3.08,2.54-6.23,4.84-9.44,6.9-2.27,1.45-4.46,2.59-6.56,3.41-2.17.85-4,1.28-5.48,1.28-1.32,0-2.35-.32-3.09-.97-.79-.69-1.19-1.66-1.19-2.92,0-1.65.77-3.68,2.31-6.09,1.45-2.26,3.25-4.6,5.41-7.03,2.14-2.41,4.33-4.64,6.56-6.7ZM258.04,135.06c.18.09.34.13.5.13,1.15,0,2.91-.49,5.27-1.49,2.4-1.01,4.79-2.49,7.17-4.44,1.79-1.45,3.24-2.83,4.33-4.14.95-1.14,1.43-1.95,1.43-2.44,0,.12.06.23.2.34.06.05.12.09.18.1h-.06c-.64,0-2.04.7-4.22,2.11-2.34,1.52-4.84,3.36-7.49,5.54-2.66,2.18-4.98,4.27-6.98,6.26l-.87-.87.55-1.11ZM256.93,137.28l-1.54-.77,1.22-1.22c2.06-2.06,4.44-4.2,7.17-6.43,2.73-2.23,5.3-4.13,7.72-5.7,2.58-1.68,4.44-2.52,5.57-2.52.62,0,1.12.17,1.5.5.44.38.66.89.66,1.54,0,1.09-.67,2.44-2.01,4.03-1.2,1.43-2.75,2.91-4.66,4.46-2.56,2.11-5.15,3.71-7.78,4.81-2.67,1.12-4.74,1.69-6.23,1.69-.55,0-1.08-.13-1.61-.39Z"/>
      <path class="cls-4" d="M322.13,122.59l-4.3,4.7-5.81,6.41c-2.06,2.28-3.99,4.48-5.79,6.58-1.82,2.13-3.35,3.86-4.6,5.2l-.91-.85.94.81c-1.06,1.24-2.79,3.19-5.18,5.84-2.39,2.65-5.17,5.64-8.36,8.96-3.19,3.32-6.57,6.66-10.16,10.03-3.61,3.38-7.19,6.41-10.75,9.08-8.46,6.5-16.8,11.34-25.02,14.51-8.26,3.18-16.25,4.78-23.99,4.78-4.72,0-9.06-.66-13.02-1.98-4.01-1.34-7.3-3.24-9.86-5.7-2.62-2.53-4.22-5.56-4.79-9.09l1.22-.2-1.21.25c-.26-1.22-.31-2.2-.17-2.93.21-1.12.82-1.78,1.8-1.98l.24,1.22-.55-1.11c.6-.3,1.15-.28,1.66.04.39.25.66.65.81,1.2.15.53.27,1.14.36,1.8l-1.23.17,1.22-.23c.57,3,1.9,5.51,4.01,7.53,2.15,2.07,4.88,3.63,8.17,4.67,3.36,1.06,6.91,1.6,10.67,1.6,5.15,0,10.24-.88,15.26-2.64,5.08-1.78,9.96-4.08,14.65-6.9,4.72-2.84,9.03-5.83,12.95-8.96,4.9-3.94,10-8.58,15.3-13.92,5.32-5.36,10.4-10.69,15.24-15.96l.02-.02.02-.02s.03-.03.03-.03c-.03.04-.06.1-.08.17-.13.38-.04.73.25,1.02.3.3.64.38,1.02.25.07-.02.13-.05.17-.08,0,0-.01.01-.03.03h-.01s-.01.02-.01.02c-4.9,4.63-9.34,8.27-13.32,10.91-4.13,2.74-7.38,4.11-9.74,4.11-1.92,0-3.38-.48-4.37-1.44-1.02-.99-1.48-2.41-1.37-4.24l1.24.08h-1.24c0-2.69,1.07-5.89,3.21-9.61,2.08-3.61,4.61-6.96,7.59-10.03,3.23-3.33,6.81-6.29,10.71-8.9,3.9-2.6,7.69-4.68,11.37-6.26,3.77-1.61,6.93-2.41,9.48-2.41,1.3,0,2.47.21,3.5.62,1.4.56,2.1,1.78,2.1,3.66,0,.9-.33,2.02-.98,3.38-.63,1.3-1.69,2.75-3.19,4.34l-.9-.85,1.11.55c.04-.09.06-.2.06-.34,0-.45-.21-.79-.62-.99-.28-.14-.52-.17-.71-.07l.55,1.11-.88-.88c.72-.72,1.68-1.63,2.88-2.74,1.21-1.12,2.42-2.17,3.63-3.16,1.24-1.01,2.2-1.71,2.88-2.1l.62,1.08-.66-1.05c1.17-.75,2.67-1.12,4.5-1.12h4.27l-1.91,2.08ZM320.31,120.92l.92.83v1.24h-1.45c-1.34,0-2.4.24-3.17.73l-.05.03c-.56.32-1.41.94-2.54,1.87-1.17.95-2.34,1.97-3.51,3.05-1.18,1.09-2.11,1.98-2.81,2.68l-.14.14-.18.09c-.55.28-1.05.3-1.51.07-.5-.25-.75-.66-.75-1.23,0-.25.06-.51.19-.77l.08-.17.13-.13c1.32-1.41,2.24-2.65,2.76-3.72.49-1.02.74-1.79.74-2.3,0-.76-.18-1.22-.54-1.36-.73-.29-1.59-.44-2.58-.44-2.21,0-5.04.74-8.5,2.22-3.54,1.51-7.2,3.52-10.97,6.04-3.76,2.51-7.2,5.36-10.31,8.56-2.84,2.92-5.25,6.1-7.22,9.54-1.92,3.33-2.88,6.12-2.88,8.37v.07c-.07,1.08.13,1.85.61,2.31.51.49,1.39.74,2.64.74,1.87,0,4.65-1.23,8.37-3.69,3.86-2.56,8.2-6.11,12.99-10.65l.85.9-.88-.87c.27-.27.55-.45.83-.55.58-.19,1.09-.08,1.52.35.43.43.54.93.35,1.52-.09.28-.28.56-.55.83l-.87-.88.92.84c-4.86,5.3-9.96,10.65-15.31,16.04-5.36,5.41-10.54,10.11-15.51,14.11-4.01,3.21-8.42,6.26-13.23,9.15-4.83,2.91-9.87,5.28-15.11,7.11-5.29,1.86-10.65,2.78-16.08,2.78-4.01,0-7.81-.57-11.42-1.71-3.67-1.16-6.71-2.91-9.15-5.25-2.48-2.39-4.05-5.34-4.72-8.86v-.06c-.09-.57-.19-1.07-.31-1.5h0c.06.09.13.17.24.24.28.17.53.2.77.08l-.15.07-.16.03c.06-.02.13-.05.17-.11v-.02s-.01.08-.02.13c-.08.41-.02,1.07.16,1.96v.03s.01.03.01.03c.49,2.99,1.84,5.56,4.07,7.7,2.29,2.2,5.26,3.92,8.92,5.14,3.71,1.24,7.79,1.85,12.23,1.85,7.43,0,15.13-1.54,23.09-4.61,8-3.09,16.14-7.81,24.43-14.18,3.49-2.62,7-5.59,10.54-8.9,3.56-3.33,6.91-6.65,10.07-9.94,3.16-3.3,5.93-6.26,8.3-8.9,2.37-2.64,4.09-4.57,5.14-5.8l.03-.04c1.22-1.31,2.73-3.01,4.52-5.12,1.81-2.12,3.76-4.34,5.85-6.64l5.82-6.42,4.29-4.67ZM307.15,123.6c0-.07,0-.13-.02-.15.01.02.03.05.06.08l.02.02c-.06-.02-.16-.03-.28-.03-1.59,0-4.58,1.51-8.95,4.54-4.53,3.14-9.81,7.63-15.84,13.49-2.09,2.09-4.06,4.22-5.94,6.4-1.86,2.16-3.34,4.12-4.46,5.87-1.02,1.6-1.53,2.82-1.53,3.63,0,.09,0,.15.02.19,0-.02-.02-.04-.05-.07-.03-.03-.05-.04-.07-.05.04.01.1.02.19.02v1.24l-.09-1.24c1.02-.07,2.75-.89,5.17-2.45,2.56-1.64,5.48-3.88,8.79-6.71,3.33-2.84,6.7-5.97,10.11-9.39,1.58-1.58,3.41-3.43,5.48-5.55,2.04-2.08,3.82-4.1,5.33-6.04,1.37-1.75,2.05-3.02,2.05-3.8ZM309.64,123.6c0,1.34-.86,3.12-2.58,5.32-1.57,2.02-3.41,4.11-5.51,6.25-2.07,2.12-3.91,3.97-5.5,5.56-3.46,3.46-6.88,6.64-10.25,9.52-3.39,2.9-6.41,5.21-9.06,6.91-2.78,1.79-4.89,2.74-6.34,2.84h-.04s-.04,0-.04,0c-.78,0-1.41-.23-1.87-.69s-.69-1.09-.69-1.87c0-1.3.64-2.95,1.91-4.96,1.18-1.86,2.73-3.91,4.67-6.16,1.92-2.22,3.95-4.42,6.09-6.56,6.13-5.95,11.52-10.54,16.16-13.75,4.8-3.32,8.25-4.98,10.36-4.98.8,0,1.45.22,1.92.65.51.47.77,1.1.77,1.91Z"/>
      <path class="cls-4" d="M325.63,138.01c-2.17,2-4.3,4.17-6.39,6.52-2.07,2.33-3.8,4.57-5.17,6.72-1.28,2-1.92,3.59-1.92,4.75,0,.5.11.85.34,1.05.27.24.76.36,1.47.36,1.17,0,2.69-.37,4.57-1.1,1.95-.77,3.99-1.83,6.13-3.2,3.13-2,6.2-4.24,9.2-6.72,3.03-2.5,5.38-4.5,7.04-5.98l.83.92-.87-.88c.51-.51,1.03-.93,1.56-1.24.42-.25.83-.38,1.23-.38.52,0,.96.19,1.34.56.35.35.54.75.58,1.22.03.43-.08.84-.33,1.24-.27.43-.57.81-.9,1.14l-.02.02-.02.02c-2.22,2.05-4.62,4.11-7.2,6.2-2.58,2.09-5.34,4.16-8.27,6.2-2.26,1.54-4.79,2.98-7.58,4.33-2.9,1.41-5.73,2.11-8.47,2.11-1.8,0-3.52-.45-5.16-1.34-1.88-1.03-2.83-3.07-2.83-6.11,0-1.93.69-4.55,2.08-7.88,1.39-3.33,4.26-7.09,8.62-11.26,3.05-2.87,6.37-5.51,9.95-7.93,3.59-2.42,7.06-4.39,10.43-5.92,3.47-1.57,6.35-2.36,8.64-2.36,1.65,0,2.92.42,3.82,1.26.92.86,1.39,1.96,1.39,3.29,0,1.72-.81,3.51-2.42,5.37-1.48,1.71-3.2,3.22-5.14,4.52-2.19,1.46-4.65,2.71-7.38,3.76-2.79,1.07-5.27,1.6-7.45,1.6-1.17,0-2.19-.22-3.07-.66l.55-1.11.84.9ZM323.95,136.18l.63-.58.77.38c.53.27,1.18.4,1.96.4,1.87,0,4.06-.48,6.56-1.44,2.56-.98,4.86-2.15,6.9-3.51,1.76-1.17,3.31-2.53,4.64-4.08,1.21-1.4,1.81-2.65,1.81-3.75,0-.61-.2-1.1-.6-1.47-.43-.39-1.13-.59-2.13-.59-1.94,0-4.48.71-7.62,2.14-3.24,1.47-6.6,3.37-10.07,5.72-3.47,2.34-6.68,4.9-9.62,7.67-4.11,3.93-6.79,7.41-8.05,10.42-1.26,3.02-1.89,5.33-1.89,6.93,0,2.07.51,3.38,1.54,3.94,1.27.69,2.59,1.04,3.97,1.04,2.37,0,4.83-.62,7.39-1.86,2.68-1.3,5.09-2.67,7.23-4.13,2.88-2.01,5.59-4.04,8.13-6.09,2.54-2.05,4.9-4.09,7.08-6.1l.84.92-.87-.88c.19-.19.38-.43.55-.7-.03.05-.04.13-.04.25.01.15.06.27.15.36.11.11.25.17.41.17.04,0,.08,0,.11-.02-.02,0-.04.02-.07.04-.35.21-.71.5-1.08.87l-.02.02-.02.02c-1.69,1.51-4.06,3.52-7.11,6.05-3.08,2.54-6.23,4.84-9.44,6.9-2.27,1.45-4.46,2.59-6.56,3.41-2.17.85-4,1.28-5.48,1.28-1.32,0-2.35-.32-3.09-.97-.79-.69-1.19-1.66-1.19-2.92,0-1.65.77-3.68,2.31-6.09,1.45-2.26,3.25-4.6,5.41-7.03,2.14-2.41,4.33-4.64,6.56-6.7ZM326.27,135.06c.18.09.34.13.5.13,1.15,0,2.91-.49,5.27-1.49,2.4-1.01,4.79-2.49,7.17-4.44,1.79-1.45,3.24-2.83,4.33-4.14.95-1.14,1.43-1.95,1.43-2.44,0,.12.06.23.2.34.06.05.12.09.18.1h-.06c-.64,0-2.04.7-4.22,2.11-2.34,1.52-4.84,3.36-7.49,5.54-2.66,2.18-4.98,4.27-6.98,6.26l-.87-.87.55-1.11ZM325.16,137.28l-1.54-.77,1.22-1.22c2.06-2.06,4.44-4.2,7.17-6.43,2.73-2.23,5.3-4.13,7.72-5.7,2.58-1.68,4.44-2.52,5.57-2.52.62,0,1.12.17,1.5.5.44.38.66.89.66,1.54,0,1.09-.67,2.44-2.01,4.03-1.2,1.43-2.75,2.91-4.66,4.46-2.56,2.11-5.15,3.71-7.78,4.81-2.67,1.12-4.74,1.69-6.23,1.69-.55,0-1.09-.13-1.61-.39Z"/>
      <path class="cls-4" d="M222.04,86.05c0,1.15-.47,2.1-1.39,2.84-.92.75-2.05,1.12-3.37,1.12-2.73,0-5.89-.4-9.46-1.19-3.57-.79-6.76-1.49-9.58-2.11-2.38-.53-4.92-1.14-7.6-1.85-2.69-.71-5.58-1.28-8.66-1.72-6.44,2.46-13.03,5.77-19.77,9.92-6.74,4.14-13.28,8.94-19.63,14.41-4.5,3.88-8.75,8.01-12.76,12.37-4.01,4.36-7.54,8.68-10.58,12.95-3.04,4.28-5.42,8.35-7.14,12.24-1.72,3.88-2.57,7.27-2.57,10.18,0,3.08,1.03,5.57,3.11,7.47,2.07,1.9,5.31,2.8,9.71,2.71,4.41-.17,9.06-1.17,13.95-2.98,4.89-1.81,9.37-4.03,13.43-6.68,3.08-2.03,6.01-4.07,8.79-6.15,2.78-2.07,5.45-4.21,8.01-6.41.35-.26.79-.59,1.32-.99.53-.4.92-.47,1.19-.2.36.35.4.73.13,1.12-.27.4-.62.77-1.05,1.12-2.56,2.11-5.36,4.39-8.41,6.81-3.04,2.43-6.1,4.57-9.18,6.41-4.32,2.73-8.86,5.05-13.62,6.94-4.76,1.9-9.7,2.93-14.81,3.12-4.32.09-8.13-.78-11.44-2.58-3.31-1.81-5.44-4.61-6.4-8.4-.62.27-1.3.44-2.05.53-.75.09-1.47.13-2.18.13-6.79,0-12.08-2.07-15.88-6.21-3.79-4.14-5.68-10.1-5.68-17.86,0-5.55,1.12-11.02,3.37-16.4,2.25-5.38,5.31-10.33,9.19-14.87,3.88-4.54,8.16-8.4,12.83-11.57,7.14-4.76,14.79-8.24,22.94-10.45,8.16-2.2,16.95-3.31,26.38-3.31,4.85,0,9.52.31,14.02.93,4.49.62,8.9,1.46,13.23,2.52,4.05-1.24,8.17-2.14,12.36-2.72,4.19-.58,8.18-.81,11.97-.73,4.93.18,9.05,1.11,12.36,2.79,3.3,1.68,4.95,3.92,4.95,6.74ZM220.59,86.05c0-2.55-1.57-4.49-4.7-5.81-3.13-1.32-6.85-1.98-11.16-1.98-2.73,0-5.76.22-9.07.67-3.31.44-6.59,1.23-9.85,2.37,2.2.53,4.45,1.13,6.74,1.79,2.3.66,4.37,1.25,6.22,1.78,2.82.71,5.9,1.51,9.25,2.39,3.35.88,6.35,1.32,9,1.32,2.38,0,3.57-.84,3.57-2.52ZM175.11,82.22c-6.61-.79-13.93-1.19-21.95-1.19-8.73,0-16.9.86-24.53,2.58-7.62,1.72-15.09,4.91-22.41,9.58-5.03,3.17-9.45,6.92-13.29,11.24-3.83,4.32-6.83,8.91-8.99,13.76-2.16,4.84-3.24,9.74-3.24,14.68,0,7.58,1.76,13.24,5.28,16.99,3.53,3.75,8.24,5.62,14.15,5.62.62,0,1.28-.04,1.98-.13.71-.09,1.37-.22,1.98-.41-.27-3.97.35-8.09,1.85-12.36,1.5-4.27,3.6-8.53,6.29-12.76,2.69-4.23,5.75-8.26,9.19-12.09,3.44-3.84,6.92-7.26,10.45-10.25,6.52-5.55,13.53-10.46,21.02-14.74,7.49-4.28,14.89-7.79,22.21-10.52Z"/>
      <path class="cls-4" d="M199.71,120.29c3.35,0,5.02,1.28,5.02,3.84,0,1.94-.97,4.56-2.91,7.87-1.94,3.31-4.98,7.03-9.12,11.17-5.29,5.38-10.27,9.63-14.95,12.76-4.67,3.13-8.33,4.69-10.97,4.69-3.78,0-5.68-2.07-5.68-6.21,0-2.38.9-5.27,2.71-8.66,1.81-3.4,4.34-6.77,7.6-10.12,3.08-3.09,6.34-5.78,9.78-8.07,3.44-2.29,6.79-4.07,10.05-5.35,3.26-1.28,6.08-1.92,8.46-1.92ZM202.61,123.6c0-.97-.53-1.45-1.59-1.45-2.03,0-5.29,1.7-9.78,5.09-4.5,3.39-9.48,7.87-14.95,13.42-2.99,3.27-5.66,6.35-8,9.26-2.33,2.91-3.5,5.2-3.5,6.88,0,1.5.7,2.24,2.12,2.24,2.03,0,5.24-1.81,9.65-5.42,4.41-3.62,9.3-8.2,14.68-13.76,1.49-1.59,3.12-3.41,4.89-5.48,1.77-2.07,3.29-4.1,4.57-6.08,1.28-1.98,1.92-3.55,1.92-4.7Z"/>
      <path class="cls-4" d="M267.93,89.62c.18,0,.29.02.33.07.04.04-.06.11-.33.2-1.76.44-3.66,1.3-5.69,2.57-2.03,1.28-3.61,2.36-4.75,3.24-6.7,5.11-13.38,10.76-20.04,16.93-6.66,6.17-13.69,13.04-21.09,20.63-2.82,2.99-5.58,5.97-8.27,8.92-2.68,2.95-4.91,5.62-6.68,8-1.14,1.5-2.04,2.85-2.7,4.04-.66,1.19-1,2.13-1,2.84,0,.79.49,1.19,1.45,1.19,2.2,0,5.69-1.76,10.45-5.29,1.32-.88,2.88-2.06,4.69-3.56,1.81-1.5,3.59-3,5.35-4.5,1.77-1.5,3.18-2.69,4.24-3.58.26-.17.57-.42.92-.73.36-.31.71-.29,1.06.07.36.44.13,1.05-.66,1.85-.98.88-2.36,2.07-4.17,3.58-1.81,1.5-3.68,3.04-5.62,4.63-1.94,1.59-3.75,2.95-5.42,4.1-2.3,1.67-4.55,3.06-6.75,4.16-2.2,1.1-4.05,1.65-5.55,1.65-3,0-4.5-1.5-4.5-4.5,0-1.94.97-4.45,2.91-7.53,1.41-2.29,3.56-5.15,6.47-8.59,2.91-3.44,6.44-7.27,10.58-11.5,4.76-4.85,9.52-9.48,14.28-13.88,4.76-4.41,9.23-8.36,13.42-11.84,4.18-3.48,7.78-6.24,10.78-8.26,2.91-1.85,5.6-3.17,8.07-3.97,1.06-.36,2.27-.62,3.64-.79,1.38-.18,2.9-.22,4.57-.14Z"/>
      <path class="cls-4" d="M290.01,89.62c.18,0,.29.02.33.07.04.04-.06.11-.33.2-1.76.44-3.66,1.3-5.69,2.57-2.03,1.28-3.61,2.36-4.75,3.24-6.7,5.11-13.38,10.76-20.04,16.93-6.66,6.17-13.69,13.04-21.09,20.63-2.82,2.99-5.58,5.97-8.27,8.92-2.68,2.95-4.91,5.62-6.68,8-1.14,1.5-2.04,2.85-2.7,4.04-.66,1.19-1,2.13-1,2.84,0,.79.49,1.19,1.45,1.19,2.2,0,5.69-1.76,10.45-5.29,1.32-.88,2.88-2.06,4.69-3.56,1.81-1.5,3.59-3,5.35-4.5,1.77-1.5,3.18-2.69,4.24-3.58.26-.17.57-.42.92-.73.36-.31.71-.29,1.06.07.36.44.13,1.05-.66,1.85-.98.88-2.36,2.07-4.17,3.58-1.81,1.5-3.68,3.04-5.62,4.63-1.94,1.59-3.75,2.95-5.42,4.1-2.3,1.67-4.55,3.06-6.75,4.16-2.2,1.1-4.05,1.65-5.55,1.65-3,0-4.5-1.5-4.5-4.5,0-1.94.97-4.45,2.91-7.53,1.41-2.29,3.56-5.15,6.47-8.59,2.91-3.44,6.44-7.27,10.58-11.5,4.76-4.85,9.52-9.48,14.28-13.88,4.76-4.41,9.23-8.36,13.42-11.84,4.18-3.48,7.78-6.24,10.78-8.26,2.91-1.85,5.6-3.17,8.07-3.97,1.06-.36,2.27-.62,3.64-.79,1.38-.18,2.9-.22,4.57-.14Z"/>
      <path class="cls-4" d="M256.56,137.09c-2.21,2.03-4.37,4.23-6.48,6.62s-3.88,4.67-5.29,6.88c-1.41,2.2-2.11,4.01-2.11,5.42,0,1.76,1.01,2.64,3.04,2.64,1.32,0,3-.4,5.02-1.19,2.03-.79,4.14-1.9,6.35-3.31,3.18-2.03,6.29-4.29,9.33-6.8,3.04-2.52,5.4-4.52,7.07-6.03.44-.44.89-.79,1.32-1.05.44-.26.79-.26,1.05,0,.26.27.29.58.07.93-.22.35-.46.66-.73.92-2.21,2.03-4.59,4.08-7.14,6.15-2.56,2.07-5.29,4.12-8.2,6.15-2.2,1.5-4.67,2.91-7.4,4.23-2.73,1.32-5.38,1.98-7.93,1.98-1.59,0-3.11-.4-4.56-1.19-1.45-.79-2.19-2.47-2.19-5.02,0-1.77.66-4.24,1.98-7.41,1.32-3.17,4.1-6.79,8.33-10.84,3-2.82,6.26-5.42,9.78-7.8,3.53-2.38,6.94-4.32,10.24-5.81,3.31-1.5,6.02-2.25,8.13-2.25,1.32,0,2.31.31,2.97.93.66.62,1,1.41,1,2.38,0,1.41-.7,2.93-2.12,4.57-1.41,1.63-3.03,3.06-4.89,4.29-2.11,1.41-4.5,2.62-7.14,3.64-2.65,1.01-4.98,1.52-7.01,1.52-.98,0-1.81-.18-2.52-.53ZM257.48,136.16c.36.18.71.27,1.06.27,1.32,0,3.24-.53,5.75-1.59,2.52-1.06,5.01-2.6,7.48-4.63,1.85-1.49,3.35-2.93,4.49-4.29,1.15-1.37,1.72-2.45,1.72-3.24,0-.53-.31-.79-.93-.79-.88,0-2.51.77-4.89,2.32-2.38,1.54-4.92,3.41-7.6,5.62-2.69,2.2-5.05,4.31-7.08,6.34Z"/>
      <path class="cls-4" d="M321.21,121.76c-1.06,1.14-2.49,2.71-4.29,4.69-1.81,1.98-3.74,4.12-5.81,6.41s-4.01,4.49-5.83,6.61c-1.81,2.11-3.33,3.84-4.56,5.16-1.06,1.24-2.77,3.18-5.16,5.83-2.38,2.65-5.16,5.62-8.33,8.93-3.17,3.3-6.55,6.63-10.12,9.97-3.57,3.35-7.11,6.35-10.64,9-8.38,6.43-16.62,11.21-24.73,14.34-8.11,3.13-15.95,4.7-23.54,4.7-4.59,0-8.79-.64-12.63-1.92-3.84-1.28-6.96-3.08-9.39-5.42s-3.9-5.14-4.43-8.4c-.44-2.11-.22-3.26.66-3.44.36-.17.6-.02.73.47.13.48.23,1.03.32,1.65.62,3.26,2.07,5.99,4.37,8.2,2.29,2.2,5.18,3.86,8.66,4.95,3.48,1.1,7.16,1.65,11.04,1.65,5.29,0,10.51-.9,15.67-2.71,5.15-1.81,10.11-4.14,14.87-7s9.12-5.88,13.09-9.05c4.94-3.97,10.07-8.65,15.4-14.02,5.34-5.37,10.42-10.7,15.28-15.99.26-.26.33-.46.19-.59-.13-.13-.33-.07-.59.19-4.85,4.59-9.24,8.18-13.16,10.78-3.92,2.6-6.94,3.9-9.05,3.9-3.17,0-4.67-1.45-4.5-4.36,0-2.47,1.02-5.46,3.05-8.99,2.03-3.53,4.49-6.79,7.4-9.79,3.17-3.26,6.68-6.17,10.51-8.73,3.84-2.55,7.56-4.6,11.17-6.15,3.62-1.55,6.62-2.32,9-2.32,1.15,0,2.16.18,3.04.53.88.36,1.32,1.2,1.32,2.52,0,.7-.29,1.65-.86,2.84-.58,1.19-1.56,2.53-2.97,4.03-.09.18-.09.29,0,.34.09.04.22.02.41-.07.7-.71,1.65-1.61,2.84-2.71,1.19-1.1,2.38-2.14,3.57-3.11,1.19-.97,2.1-1.64,2.72-1.99.97-.61,2.24-.92,3.83-.92h1.45v.02ZM308.4,123.6c0-.88-.49-1.32-1.46-1.32-1.85,0-5.07,1.59-9.65,4.76-4.58,3.17-9.91,7.71-15.99,13.62-2.11,2.11-4.12,4.28-6.02,6.48-1.9,2.21-3.41,4.21-4.56,6.02-1.15,1.81-1.72,3.24-1.72,4.29,0,.88.44,1.32,1.32,1.32,1.24-.09,3.16-.97,5.76-2.64,2.6-1.68,5.57-3.95,8.92-6.81,3.35-2.87,6.75-6.02,10.19-9.46,1.59-1.59,3.41-3.44,5.48-5.55,2.07-2.11,3.88-4.16,5.42-6.15,1.54-1.98,2.31-3.5,2.31-4.56Z"/>
      <path class="cls-4" d="M324.79,137.09c-2.21,2.03-4.37,4.23-6.48,6.62s-3.88,4.67-5.29,6.88c-1.41,2.2-2.11,4.01-2.11,5.42,0,1.76,1.01,2.64,3.04,2.64,1.32,0,3-.4,5.02-1.19,2.03-.79,4.14-1.9,6.35-3.31,3.18-2.03,6.29-4.29,9.33-6.8,3.04-2.52,5.4-4.52,7.07-6.03.44-.44.89-.79,1.32-1.05.44-.26.79-.26,1.05,0,.26.27.29.58.07.93-.22.35-.46.66-.73.92-2.21,2.03-4.59,4.08-7.14,6.15-2.56,2.07-5.29,4.12-8.2,6.15-2.2,1.5-4.67,2.91-7.4,4.23-2.73,1.32-5.38,1.98-7.93,1.98-1.59,0-3.11-.4-4.56-1.19-1.45-.79-2.19-2.47-2.19-5.02,0-1.77.66-4.24,1.98-7.41,1.32-3.17,4.1-6.79,8.33-10.84,3-2.82,6.26-5.42,9.78-7.8,3.53-2.38,6.94-4.32,10.24-5.81,3.31-1.5,6.02-2.25,8.13-2.25,1.32,0,2.31.31,2.97.93.66.62,1,1.41,1,2.38,0,1.41-.7,2.93-2.12,4.57-1.41,1.63-3.03,3.06-4.89,4.29-2.11,1.41-4.5,2.62-7.14,3.64-2.65,1.01-4.98,1.52-7.01,1.52-.98,0-1.81-.18-2.52-.53ZM325.71,136.16c.36.18.71.27,1.06.27,1.32,0,3.24-.53,5.75-1.59,2.52-1.06,5.01-2.6,7.48-4.63,1.85-1.49,3.35-2.93,4.49-4.29,1.15-1.37,1.72-2.45,1.72-3.24,0-.53-.31-.79-.93-.79-.88,0-2.51.77-4.89,2.32-2.38,1.54-4.92,3.41-7.6,5.62-2.69,2.2-5.05,4.31-7.08,6.34Z"/>
    </g>
  </g>
  <g class="cls-7">
    <g class="cls-13">
      <g class="cls-10">
        <path class="cls-3" d="M94.18,61.55h13.05v71.57h-13.05V61.55Z"/>
      </g>
    </g>
  </g>
  <g class="cls-9">
    <g class="cls-12">
      <g class="cls-11">
        <path class="cls-3" d="M278.15,159.34h13.96v73.54h-13.96v-73.54Z"/>
      </g>
    </g>
  </g>
</svg>